<svg xmlns="http://www.w3.org/2000/svg" xmlns:xlink="http://www.w3.org/1999/xlink" style="vertical-align:-1.755ex" width="33.71ex" height="5.134ex" viewBox="0 -1455.1 14514 2210.6"><defs><path id="g" stroke-width="1" d="M307-11q-73 0-139 66l-10-18q-2-3-5-9t-6-11-4-7l-5-9-20-1H98v298q0 301-1 305-3 19-14 25t-45 9H20v23q0 23 2 23l10 1q10 1 29 2t37 2 37 2 30 3 11 1h3V543q0-152 1-152l3 3q3 3 9 7t15 10 21 10 26 10 32 8 37 3q78 0 138-63t61-163q0-101-64-164T307-11zM182 98q0-1 5-8t9-11 10-12 12-12 15-11 17-9 21-6 24-3q35 0 68 20t49 67q12 35 12 99 0 75-12 111-27 82-112 82-30 0-61-15t-51-43l-6-8V98z"/><path id="a" stroke-width="1" d="M36-148h14q39 0 47 14v57q0 18 1 39t0 44 0 49 0 51v190q0 24-1 39t0 16q-3 19-14 25t-45 9H20v23q0 23 2 23l10 1q10 1 29 2t37 2 37 2 30 3 11 1h3v-26l1-26 8 7q59 44 138 44 81 0 138-64t58-161q0-101-65-164T310-11q-68 0-120 44l-8 7v-141q0-27 2-33t11-11q21-3 49-3h16v-46h-8l-24 1q-23 1-50 1t-38 1q-103 0-112-3h-8v46h16zm388 366q0 74-34 129t-85 55q-71 0-123-65V98q40-72 112-72 51 0 90 54t40 138z"/><path id="c" stroke-width="1" d="M56 347q0 13 14 20h637q15-8 15-20 0-11-14-19l-318-1H72q-16 5-16 20zm0-194q0 15 16 20h636q14-10 14-20 0-13-15-20H70q-14 7-14 20z"/><path id="d" stroke-width="1" d="M137 305h-22l-37 15-15 39q0 35 34 62t121 27q73 0 118-32t60-76q5-14 5-31t1-115v-70q0-48 5-66t21-18q15 0 20 16t5 53v36h40v-39q-1-40-3-47-9-30-35-47T400-6t-47 18-24 42v4l-2-3q-2-3-5-6t-8-9-12-11-15-12-18-11-22-8-26-6-31-3q-60 0-108 31t-48 87q0 21 7 40t27 41 48 37 78 28 110 15h14v22q0 34-6 50-22 71-97 71-18 0-34-1t-25-4-8-3q22-15 22-44 0-25-16-39zm-11-199q0-31 24-55t59-25q38 0 67 23t39 60q2 7 3 66 0 58-1 58-8 0-21-1t-45-9-58-20-46-37-21-60z"/><path id="e" stroke-width="1" d="M213 578l-13-5q-14-5-40-10t-58-7H83v46h19q47 2 87 15t56 24 28 22q2 3 12 3 9 0 17-6V361l1-300q7-7 12-9t24-4 62-2h26V0h-11q-21 3-159 3-136 0-157-3H88v46h64q16 0 25 1t16 3 8 2 6 5 6 4v517z"/><path id="f" stroke-width="1" d="M630 29q0-20-21-20-5 0-22 16t-94 93L389 222 284 117Q178 13 175 11q-4-2-7-2-8 0-14 6t-7 14q0 7 14 22t94 95l104 104-104 104q-81 81-94 95t-14 22q0 9 6 14t15 5q5 0 7-1 3-2 109-106l105-105 104 104q77 77 94 93t22 16q21 0 21-20 0-7-10-18t-98-98L418 250l104-105q84-84 96-97t12-19z"/><path id="b" stroke-width="1" d="M28 218q0 55 20 100t50 73 65 42 66 15q53 0 91-18t58-50 28-64 9-71q0-7-7-14H126v-15q0-148 100-180 20-6 44-6 42 0 72 32 17 17 27 42l10 24q3 3 16 3h3q17 0 17-10 0-4-3-13-19-55-63-87t-99-32q-95 0-158 69T28 218zm305 57q-11 128-95 136h-2q-8 0-16-1t-25-8-29-21-23-41-16-66v-7h206v8z"/><path id="h" stroke-width="1" d="M56 237v13l14 20h299v150l1 150q10 13 19 13 13 0 20-15V270h298q15-8 15-20t-15-20H409V-68q-8-14-18-14h-4q-12 0-18 14v298H70q-14 7-14 20z"/><path id="i" stroke-width="1" d="M109 429q-27 0-43 18t-16 44q0 71 53 123t132 52q91 0 152-56t62-145q0-43-20-82t-48-68-80-74q-36-31-100-92l-59-56 76-1q157 0 167 5 7 2 24 89v3h40v-3q-1-3-13-91T421 3V0H50v31q0 7 6 15t30 35q29 32 50 56 9 10 34 37t34 37 29 33 28 34 23 30 21 32 15 29 13 32 7 30 3 33q0 63-34 109t-97 46q-33 0-58-17t-35-33-10-19q0-1 5-1 18 0 37-14t19-46q0-25-16-42t-45-18z"/><path id="j" stroke-width="1" d="M78 60q0 24 17 42t43 18q24 0 42-16t19-43q0-25-17-43T139 0 96 17 78 60z"/><path id="k" stroke-width="1" d="M56 342q0 86 33 158t85 115 109 66 108 24h9q6 0 8-1 91 0 161-68l13-12 30 39q27 37 31 41h4q3 0 6 1h4q3 0 9-6V419l-6-6h-34q-6 6-7 17-9 82-48 142t-95 79q-19 7-50 7-104 0-174-70-79-79-79-246 0-121 38-191 21-40 52-67t65-39 56-16 44-5q89 0 143 69t55 151q0 7 6 13h28l6-6v-15q-5-103-76-180T403-21Q262-21 159 83T56 342z"/><path id="l" stroke-width="1" d="M41 46h14q39 0 47 14v62q0 17 1 39t0 42v66q0 35-1 59v23q-3 19-14 25t-45 9H25v23q0 23 2 23l10 1q10 1 28 2t37 2q17 1 36 2t29 3 11 1h3v-40q0-38 1-38t5 5 12 15 19 18 29 19 38 16q20 5 51 5 114-4 127-113 1-7 1-139v-86q0-38 2-45t11-10q21-3 49-3h16V0h-8l-24 1q-23 1-50 1t-38 1Q319 3 310 0h-8v46h16q61 0 61 16 1 2 1 138-1 135-2 143-6 28-20 42t-24 17-26 2q-45 0-79-34-27-27-34-55t-8-83V108q0-30 1-40t3-13 9-6q21-3 49-3h16V0h-8l-23 1q-24 1-51 1t-38 1Q42 3 33 0h-8v46h16z"/></defs><g fill="currentColor" stroke="currentColor" stroke-width="0" transform="scale(1 -1)"><use xlink:href="#a"/><use x="556" xlink:href="#b"/><use x="1001" xlink:href="#c"/><path stroke="none" d="M1899 220h12494v60H1899z"/><g transform="translate(1959 676)"><use xlink:href="#d"/><use x="500" xlink:href="#e"/><use x="1001" xlink:href="#f"/><use x="1779" xlink:href="#g"/><use x="2336" xlink:href="#e"/><use x="2836" xlink:href="#h"/><use x="3615" xlink:href="#d"/><use x="4115" xlink:href="#i"/><use x="4616" xlink:href="#f"/><use x="5394" xlink:href="#g"/><use x="5951" xlink:href="#i"/><use x="6451" xlink:href="#h"/><use x="7230" xlink:href="#j"/><use x="7508" xlink:href="#j"/><use x="7787" xlink:href="#j"/><use x="8065" xlink:href="#h"/><use x="8844" xlink:href="#d"/><use x="9344" xlink:href="#k"/><use x="10067" xlink:href="#f"/><use x="10845" xlink:href="#g"/><use x="11402" xlink:href="#k"/></g><g transform="translate(7200 -686)"><use xlink:href="#l"/><use x="556" xlink:href="#f"/><use x="1335" xlink:href="#l"/></g></g></svg>